# xmcd
#
# Track frame offsets:
# 150
# 1388
# 18090
# 34852
# 51623
# 72614
# 83253
# 99216
# 113147
# 132271
# 149129
# 151362
# 170856
# 188338
# 207266
# 228655
# 246783
# 267510
# 284888
#
# Disc length: 4332 seconds
#
#
# Revision: 0
# Processed by: cddbd v1.5.1PL0 Copyright (c) Steve Scherf et al.
# Submitted via: FreeRIP 2.60 
#
DISCID=1710ea13
DTITLE=Houston Marchman - Live
DYEAR=2001
DGENRE=Texan
TTITLE0=Intro
TTITLE1=South Texas Rain
TTITLE2=Wichita Falls
TTITLE3=Bosses' In The Rain
TTITLE4=Leavin Dallas
TTITLE5=Bill Longley Intro
TTITLE6=Bill Longley
TTITLE7=Plano Texas Girl
TTITLE8=Del Rio
TTITLE9=Fort Worth
TTITLE10=Intro 2
TTITLE11=Damn This Road
TTITLE12=Worry Me
TTITLE13=Caleb
TTITLE14=Hanks Angel
TTITLE15=When You Ain't Looking
TTITLE16=Wheels
TTITLE17=Adios Baby
TTITLE18=VietNashville
EXTD=
EXTT0=
EXTT1=
EXTT2=
EXTT3=
EXTT4=
EXTT5=
EXTT6=
EXTT7=
EXTT8=
EXTT9=
EXTT10=
EXTT11=
EXTT12=
EXTT13=
EXTT14=
EXTT15=
EXTT16=
EXTT17=
EXTT18=
PLAYORDER=
